<svg width="1440" height="1024" viewBox="0 0 1440 1024" fill="none" xmlns="http://www.w3.org/2000/svg">
<rect width="1440" height="1024" fill="#3DD6D0"/>
<g clip-path="url(#clip0_3162_67249)">
<path d="M580 499.75V531.25C580 534.05 582.451 536.5 585.25 536.5H590.499V494.5H585.25C582.451 494.5 580 496.95 580 499.75ZM616.747 484H599.249C596.449 484 593.999 486.451 593.999 489.25V536.5H621.997V489.25C621.997 486.451 619.547 484 616.747 484ZM616.747 494.5H599.249V489.25H616.747V494.5ZM630.746 494.5H625.497V536.5H630.746C633.545 536.5 635.996 534.049 635.996 531.25V499.75C635.996 496.95 633.546 494.5 630.746 494.5Z" fill="white"/>
</g>
<path d="M652.727 518.347V512.888H663.142V512.278C663.142 511.395 663.018 510.591 662.771 509.867C662.523 509.143 662.126 508.56 661.578 508.118C661.03 507.676 660.306 507.455 659.405 507.455C658.045 507.455 657.073 508.021 656.49 509.151C655.925 510.264 655.642 511.952 655.642 514.213V516.598C655.642 517.87 655.757 519.045 655.987 520.122C656.216 521.2 656.684 522.075 657.391 522.746C658.115 523.4 659.202 523.726 660.651 523.726C661.852 523.726 663.036 523.567 664.202 523.249C665.385 522.914 666.516 522.516 667.594 522.057C668.177 522.64 668.645 523.373 668.998 524.256C669.351 525.14 669.59 525.97 669.714 526.747C668.389 527.719 666.799 528.47 664.944 529C663.106 529.512 661.251 529.769 659.379 529.769C657.082 529.769 655.174 529.389 653.655 528.629C652.153 527.852 650.96 526.809 650.077 525.502C649.211 524.195 648.593 522.719 648.222 521.076C647.869 519.433 647.692 517.729 647.692 515.962C647.692 513.294 648.098 510.9 648.911 508.78C649.724 506.643 650.987 504.947 652.701 503.692C654.432 502.438 656.676 501.811 659.432 501.811C661.764 501.811 663.742 502.306 665.368 503.295C667.011 504.284 668.265 505.627 669.131 507.323C669.996 509.019 670.429 510.936 670.429 513.073C670.429 514.204 670.376 515.149 670.27 515.909C670.182 516.669 670.014 517.481 669.767 518.347H652.727ZM676.846 492.721C678.948 492.668 681.015 492.624 683.047 492.589C685.078 492.536 687.031 492.509 688.903 492.509C691.394 492.509 693.558 492.854 695.396 493.543C697.233 494.232 698.655 495.292 699.662 496.723C700.669 498.136 701.173 499.938 701.173 502.129C701.173 503.436 700.872 504.655 700.272 505.786C699.689 506.917 698.903 507.853 697.913 508.595C696.924 509.337 695.829 509.779 694.627 509.92V509.098C696.076 509.169 697.427 509.655 698.682 510.556C699.936 511.439 700.952 512.588 701.729 514.001C702.507 515.414 702.895 516.96 702.895 518.638C702.895 521.041 702.365 523.029 701.305 524.601C700.245 526.173 698.726 527.348 696.747 528.126C694.786 528.903 692.437 529.292 689.698 529.292C687.649 529.292 685.547 529.265 683.391 529.212C681.254 529.177 679.072 529.133 676.846 529.08L676.475 528.735V493.066L676.846 492.721ZM684.451 523.62C685.335 523.585 686.191 523.567 687.022 523.567C687.852 523.567 688.576 523.567 689.195 523.567C690.325 523.567 691.253 523.408 691.977 523.09C692.702 522.755 693.267 522.322 693.673 521.792C694.08 521.262 694.362 520.688 694.521 520.069C694.68 519.451 694.76 518.85 694.76 518.267C694.76 517.472 694.592 516.669 694.256 515.856C693.938 515.026 693.373 514.328 692.56 513.762C691.748 513.197 690.599 512.914 689.115 512.914H681.377V507.111H688.479C689.751 507.111 690.732 506.89 691.421 506.448C692.11 506.007 692.587 505.441 692.852 504.752C693.134 504.063 693.276 503.366 693.276 502.659C693.276 501.935 693.134 501.246 692.852 500.592C692.587 499.921 692.11 499.373 691.421 498.949C690.732 498.507 689.76 498.286 688.506 498.286C688.011 498.286 687.384 498.286 686.624 498.286C685.865 498.269 685.14 498.251 684.451 498.233V523.62ZM730.788 515.803C730.788 518.612 730.329 521.068 729.41 523.17C728.492 525.255 727.131 526.88 725.329 528.046C723.527 529.194 721.301 529.769 718.651 529.769C716.001 529.769 713.775 529.186 711.973 528.019C710.171 526.853 708.811 525.228 707.892 523.143C706.991 521.041 706.541 518.594 706.541 515.803C706.541 512.976 707 510.521 707.919 508.436C708.837 506.334 710.198 504.708 712 503.56C713.802 502.394 716.019 501.811 718.651 501.811C721.319 501.811 723.554 502.394 725.356 503.56C727.158 504.726 728.509 506.36 729.41 508.462C730.329 510.547 730.788 512.994 730.788 515.803ZM714.65 515.803C714.65 517.287 714.747 518.638 714.941 519.857C715.136 521.076 715.515 522.048 716.081 522.772C716.664 523.497 717.529 523.859 718.678 523.859C719.826 523.859 720.683 523.497 721.248 522.772C721.814 522.048 722.193 521.076 722.388 519.857C722.582 518.638 722.679 517.287 722.679 515.803C722.679 514.319 722.582 512.967 722.388 511.748C722.193 510.512 721.814 509.531 721.248 508.807C720.683 508.083 719.826 507.72 718.678 507.72C717.529 507.72 716.664 508.083 716.081 508.807C715.515 509.531 715.136 510.512 714.941 511.748C714.747 512.967 714.65 514.319 714.65 515.803ZM758.427 515.803C758.427 518.612 757.968 521.068 757.049 523.17C756.13 525.255 754.77 526.88 752.968 528.046C751.166 529.194 748.94 529.769 746.29 529.769C743.64 529.769 741.414 529.186 739.612 528.019C737.81 526.853 736.45 525.228 735.531 523.143C734.63 521.041 734.179 518.594 734.179 515.803C734.179 512.976 734.639 510.521 735.557 508.436C736.476 506.334 737.836 504.708 739.638 503.56C741.44 502.394 743.658 501.811 746.29 501.811C748.958 501.811 751.192 502.394 752.994 503.56C754.796 504.726 756.148 506.36 757.049 508.462C757.968 510.547 758.427 512.994 758.427 515.803ZM742.288 515.803C742.288 517.287 742.386 518.638 742.58 519.857C742.774 521.076 743.154 522.048 743.719 522.772C744.302 523.497 745.168 523.859 746.316 523.859C747.465 523.859 748.322 523.497 748.887 522.772C749.452 522.048 749.832 521.076 750.026 519.857C750.221 518.638 750.318 517.287 750.318 515.803C750.318 514.319 750.221 512.967 750.026 511.748C749.832 510.512 749.452 509.531 748.887 508.807C748.322 508.083 747.465 507.72 746.316 507.72C745.168 507.72 744.302 508.083 743.719 508.807C743.154 509.531 742.774 510.512 742.58 511.748C742.386 512.967 742.288 514.319 742.288 515.803ZM771.12 529C769.989 529.194 768.69 529.292 767.224 529.292C765.899 529.292 764.627 529.194 763.408 529V490.363L763.779 489.992H766.853C768.425 489.992 769.53 490.354 770.166 491.078C770.802 491.785 771.12 493.022 771.12 494.788V529ZM784.688 522.507C785.112 523.832 785.5 524.813 785.854 525.449C786.225 526.067 786.684 526.571 787.232 526.959C786.613 527.648 785.827 528.231 784.873 528.708C783.919 529.168 782.939 529.398 781.932 529.398C780.766 529.398 779.891 529.124 779.308 528.576C778.743 528.028 778.239 527.11 777.798 525.82L776.155 521.129C775.766 519.981 775.324 519.221 774.83 518.85C774.335 518.479 773.69 518.294 772.895 518.294C772.171 518.294 771.526 518.32 770.961 518.373C770.413 518.426 769.839 518.497 769.238 518.585L767.145 518.824V513.365H775.28C777.206 513.365 778.866 513.771 780.262 514.584C781.658 515.397 782.674 516.713 783.31 518.532L784.688 522.507ZM781.481 510.98C780.686 512.499 779.555 513.639 778.089 514.399C776.64 515.14 774.821 515.511 772.63 515.511H768.072V511.881L772.1 511.801C772.471 511.801 772.754 511.748 772.948 511.642C773.16 511.519 773.363 511.271 773.558 510.9L776.579 505.309C777.073 504.337 777.674 503.604 778.381 503.109C779.087 502.615 779.979 502.368 781.057 502.368C781.887 502.368 782.647 502.376 783.336 502.394C784.025 502.412 784.732 502.438 785.456 502.473L785.774 502.897L781.481 510.98ZM799.774 529C798.608 529.194 797.292 529.292 795.825 529.292C794.394 529.292 793.078 529.194 791.877 529V511.192C791.877 510.309 791.691 509.584 791.32 509.019C790.967 508.454 790.322 508.171 789.386 508.171H788.644C788.414 507.305 788.299 506.413 788.299 505.494C788.299 505.053 788.326 504.585 788.379 504.09C788.432 503.578 788.52 503.092 788.644 502.632C789.421 502.544 790.216 502.482 791.029 502.447C791.859 502.394 792.548 502.368 793.096 502.368H794.209C795.905 502.368 797.256 502.924 798.263 504.037C799.27 505.132 799.774 506.616 799.774 508.489V529ZM790.26 495.186C790.26 494.126 790.464 493.137 790.87 492.218C791.312 491.988 791.877 491.794 792.566 491.635C793.273 491.476 793.97 491.396 794.659 491.396C795.331 491.396 796.029 491.476 796.753 491.635C797.495 491.794 798.06 491.988 798.449 492.218C798.643 492.66 798.793 493.154 798.899 493.702C799.005 494.232 799.058 494.727 799.058 495.186C799.058 496.228 798.855 497.226 798.449 498.18C798.06 498.41 797.495 498.604 796.753 498.763C796.029 498.905 795.331 498.975 794.659 498.975C793.97 498.975 793.264 498.905 792.539 498.763C791.815 498.604 791.259 498.41 790.87 498.18C790.464 497.226 790.26 496.228 790.26 495.186ZM809.681 502.235C811.2 502.235 812.34 502.747 813.099 503.772C813.859 504.797 814.239 506.192 814.239 507.959V529C813.073 529.194 811.757 529.292 810.29 529.292C808.859 529.292 807.534 529.194 806.315 529V502.606L806.686 502.235H809.681ZM828.84 522.507C828.84 523.532 828.937 524.495 829.132 525.396C829.326 526.279 829.653 527.057 830.112 527.728C829.529 528.205 828.805 528.602 827.939 528.92C827.091 529.239 826.173 529.398 825.183 529.398C823.593 529.398 822.489 528.982 821.871 528.152C821.252 527.304 820.943 526.094 820.943 524.521V512.914C820.943 511.642 820.775 510.706 820.44 510.105C820.104 509.505 819.468 509.204 818.532 509.204C817.949 509.204 817.269 509.363 816.491 509.681C815.732 509.982 814.981 510.476 814.239 511.165C813.514 511.837 812.878 512.729 812.331 513.842V506.872C813.567 505.636 814.928 504.532 816.412 503.56C817.913 502.588 819.601 502.102 821.473 502.102C823.099 502.102 824.459 502.509 825.554 503.321C826.65 504.116 827.471 505.212 828.019 506.607C828.566 508.003 828.84 509.611 828.84 511.43V522.507ZM858.646 506.21C858.187 506.546 857.825 507.076 857.56 507.8C857.295 508.524 857.162 509.328 857.162 510.211V524.415C857.162 526.836 857.047 528.832 856.818 530.405C856.606 531.995 856.297 533.293 855.89 534.3C855.484 535.307 855.007 536.164 854.459 536.871C853.435 538.16 852.074 539.123 850.378 539.759C848.682 540.395 846.783 540.713 844.681 540.713C843.02 540.713 841.298 540.545 839.513 540.21C837.747 539.892 836.183 539.468 834.823 538.938C834.823 538.001 835.008 536.977 835.379 535.864C835.75 534.751 836.218 533.867 836.784 533.214C837.914 533.708 839.098 534.097 840.335 534.38C841.589 534.68 842.79 534.83 843.939 534.83C845.299 534.83 846.377 534.592 847.172 534.115C847.984 533.638 848.567 532.975 848.921 532.127C849.274 531.279 849.451 530.299 849.451 529.186V509.999C849.451 507.862 850.007 506.042 851.12 504.54C852.251 503.039 853.938 502.244 856.182 502.155C856.694 502.544 857.206 503.145 857.719 503.957C858.231 504.752 858.54 505.503 858.646 506.21ZM833.789 515.856C833.789 512.8 834.275 510.229 835.247 508.144C836.218 506.06 837.508 504.487 839.116 503.427C840.723 502.35 842.472 501.811 844.363 501.811C846.059 501.811 847.507 502.085 848.709 502.632C849.91 503.18 850.908 503.86 851.703 504.673C852.516 505.468 853.152 506.254 853.611 507.031L852.339 513.497C851.332 511.642 850.228 510.22 849.027 509.231C847.825 508.224 846.721 507.72 845.714 507.72C844.849 507.72 844.124 508.047 843.541 508.701C842.976 509.337 842.552 510.264 842.269 511.483C842.004 512.702 841.872 514.169 841.872 515.882C841.872 518.444 842.19 520.299 842.826 521.447C843.479 522.578 844.283 523.143 845.237 523.143C846.35 523.143 847.428 522.772 848.47 522.03C849.53 521.271 850.405 520.175 851.094 518.744L852.233 524.309C851.668 525.281 850.926 526.156 850.007 526.933C849.089 527.71 848.055 528.337 846.907 528.814C845.758 529.274 844.548 529.504 843.276 529.504C841.139 529.504 839.363 528.929 837.95 527.781C836.554 526.615 835.512 525.007 834.823 522.958C834.134 520.909 833.789 518.541 833.789 515.856Z" fill="white"/>
<defs>
<clipPath id="clip0_3162_67249">
<rect width="55.996" height="56" fill="white" transform="translate(580 484)"/>
</clipPath>
</defs>
</svg>
