<svg width="360" height="800" viewBox="0 0 360 800" fill="none" xmlns="http://www.w3.org/2000/svg">
<rect width="360" height="800" fill="#3DD6D0"/>
<path d="M120 373.75V441.25C120 447.25 125.252 452.5 131.25 452.5H142.5V362.5H131.25C125.252 362.5 120 367.75 120 373.75ZM198.75 340H161.25C155.25 340 150 345.252 150 351.25V452.5H210V351.25C210 345.252 204.75 340 198.75 340ZM198.75 362.5H161.25V351.25H198.75V362.5ZM228.75 362.5H217.5V452.5H228.75C234.748 452.5 240 447.248 240 441.25V373.75C240 367.75 234.75 362.5 228.75 362.5Z" fill="white"/>
</svg>
